<?xml version="1.0" standalone="no"?>
<!DOCTYPE svg PUBLIC "-//W3C//DTD SVG 20010904//EN"
 "http://www.w3.org/TR/2001/REC-SVG-20010904/DTD/svg10.dtd">
<svg version="1.0" xmlns="http://www.w3.org/2000/svg"
 width="926.000000pt" height="926.000000pt" viewBox="0 0 926.000000 926.000000"
 preserveAspectRatio="xMidYMid meet">
<metadata>
Created by potrace 1.14, written by Peter Selinger 2001-2017
</metadata>
<g transform="translate(0.000000,926.000000) scale(0.100000,-0.100000)"
fill="#000000" stroke="none">
<path d="M4445 9238 c-38 -10 -74 -23 -79 -29 -6 -5 -16 -9 -23 -9 -22 0 -115
-69 -170 -126 -80 -85 -159 -236 -189 -359 -4 -16 -9 -37 -11 -45 -2 -8 -5
-31 -7 -51 -2 -20 -6 -41 -8 -45 -6 -12 -2 -130 6 -174 32 -168 107 -298 254
-444 l54 -53 -89 3 c-48 2 -117 6 -153 9 -36 3 -87 8 -115 10 -27 3 -61 7 -75
10 -14 3 -36 8 -50 11 -14 2 -45 9 -70 14 -25 6 -54 12 -65 14 -73 14 -210 74
-254 111 -30 26 -32 32 -27 68 4 22 20 66 36 98 16 33 27 59 24 59 -5 0 -36
-14 -154 -68 -49 -22 -139 -84 -173 -118 -60 -60 -77 -125 -48 -189 42 -92
176 -189 336 -242 148 -50 222 -66 485 -108 36 -6 97 -13 155 -19 28 -3 75 -8
105 -12 69 -7 190 -16 212 -16 10 1 20 -3 22 -6 3 -4 -3 -8 -12 -8 -37 -1
-166 -19 -212 -30 -48 -11 -65 -15 -90 -20 -31 -6 -130 -33 -150 -41 -8 -3
-19 -7 -25 -8 -26 -6 -215 -80 -250 -98 -22 -11 -42 -20 -45 -20 -3 1 -27 -12
-55 -27 -27 -15 -81 -44 -120 -65 -38 -21 -72 -41 -75 -45 -3 -4 -19 -14 -35
-23 -59 -30 -261 -187 -350 -272 -100 -96 -90 -98 -89 21 1 58 -3 107 -7 110
-5 3 -9 13 -9 23 0 10 -18 54 -40 98 -61 122 -187 245 -325 316 -72 37 -211
92 -280 112 -33 9 -71 21 -85 25 -34 11 -136 30 -185 35 -22 2 -40 4 -40 5 0
4 -158 2 -205 -3 -119 -13 -258 -54 -313 -92 -25 -17 -18 -18 38 -5 61 15 170
13 233 -5 194 -57 333 -248 372 -512 38 -255 123 -409 266 -479 49 -24 72 -29
149 -31 89 -2 195 16 223 39 27 23 20 -1 -18 -60 -22 -34 -40 -65 -40 -71 0
-5 -4 -11 -9 -13 -9 -3 -144 -262 -170 -326 -43 -106 -71 -186 -90 -257 -12
-44 -25 -87 -28 -95 -3 -8 -7 -24 -9 -35 -1 -11 -8 -42 -14 -70 -6 -27 -13
-70 -16 -95 -2 -25 -7 -52 -9 -60 -6 -18 -17 -205 -17 -275 -1 -68 11 -266 16
-285 3 -8 7 -35 10 -60 3 -25 8 -56 11 -70 3 -14 8 -43 10 -64 3 -21 8 -43 11
-47 5 -9 11 -34 19 -74 11 -64 74 -249 124 -370 19 -44 73 -161 83 -180 6 -11
27 -49 46 -85 19 -36 56 -99 83 -140 26 -41 62 -106 79 -145 17 -38 36 -78 41
-87 5 -10 9 -21 9 -24 0 -6 -58 -1 -115 11 -108 22 -264 4 -366 -43 -94 -42
-249 -201 -382 -392 -81 -117 -168 -304 -194 -415 -2 -11 -6 -29 -8 -40 -3
-11 -8 -31 -11 -45 -10 -45 -12 -228 -2 -282 14 -76 24 -87 25 -26 2 142 24
205 96 280 55 57 136 118 157 118 9 0 20 3 24 7 9 9 30 11 166 18 436 21 439
21 550 52 138 39 212 105 255 229 24 70 28 98 28 196 l0 87 31 -23 c38 -29
226 -128 226 -120 0 4 6 2 13 -4 13 -11 278 -123 421 -178 49 -19 103 -41 120
-48 17 -8 74 -30 126 -51 146 -57 284 -126 394 -197 48 -31 144 -118 173 -156
l32 -42 -63 -79 c-148 -183 -166 -301 -75 -484 33 -66 107 -179 163 -247 20
-25 40 -49 44 -55 26 -33 132 -156 162 -188 19 -22 44 -50 55 -64 11 -14 32
-39 47 -57 39 -45 94 -160 116 -241 18 -68 22 -200 8 -265 -3 -14 -7 -34 -10
-45 -9 -40 -67 -176 -91 -215 -14 -22 -25 -42 -25 -45 0 -18 -148 -201 -221
-275 -78 -79 -115 -112 -213 -189 l-39 -31 45 0 c78 0 238 34 238 51 0 5 5 9
12 9 12 0 139 60 148 70 3 4 23 14 45 25 62 28 215 125 215 136 0 5 4 9 10 9
10 0 24 11 98 75 43 38 55 50 110 114 38 43 42 50 42 60 0 5 4 11 8 13 14 6
70 131 73 163 0 6 4 15 9 20 4 6 11 24 14 40 4 17 10 44 13 60 4 17 7 86 7
155 1 180 -34 283 -159 475 -71 108 -134 178 -458 509 -93 94 -176 187 -185
206 -22 47 -21 143 3 195 72 155 244 322 445 432 73 40 124 67 130 68 3 1 28
12 55 24 66 30 175 71 175 66 0 -13 220 57 340 108 14 6 27 11 30 12 38 10
319 171 379 217 13 10 26 17 28 15 2 -2 -3 -33 -11 -68 -9 -35 -15 -73 -15
-84 -1 -11 -1 -27 -2 -35 -4 -38 13 -124 35 -174 42 -94 133 -175 217 -191 48
-10 148 -15 344 -20 110 -2 231 -7 269 -11 141 -13 247 -58 305 -128 14 -17
33 -37 41 -46 23 -23 47 -80 54 -125 3 -22 8 -51 11 -65 10 -41 17 -83 20
-110 4 -49 7 -55 15 -30 7 25 5 236 -4 275 -2 11 -7 45 -11 75 -4 30 -9 64
-11 75 -2 11 -9 46 -15 79 -19 108 -94 282 -162 380 -146 208 -342 378 -492
427 -85 28 -255 31 -345 7 l-55 -15 22 46 c13 25 31 82 40 126 9 44 23 84 31
89 8 4 24 19 35 33 12 14 27 31 34 38 44 45 180 291 208 375 1 3 7 19 14 35
36 87 103 326 116 412 12 81 16 113 23 168 9 68 7 352 -3 435 -3 30 -8 73 -10
95 -2 22 -6 51 -8 65 -3 14 -8 43 -11 65 -11 81 -43 236 -55 267 -5 12 -8 25
-8 28 0 3 -8 32 -18 65 -9 33 -18 65 -19 72 -1 7 -5 16 -9 19 -4 4 -7 17 -7
29 0 11 -4 25 -8 31 -5 5 -17 32 -27 59 -26 73 -104 233 -137 282 -15 23 -28
46 -28 52 0 6 -4 11 -8 11 -4 0 -16 13 -25 30 l-18 30 28 -11 c46 -18 64 -20
143 -21 161 0 313 104 406 278 45 85 135 376 120 391 -9 9 53 163 80 198 37
49 102 92 171 114 82 27 279 21 360 -10 25 -9 32 4 11 24 -61 58 -158 95 -298
114 -69 10 -250 3 -370 -13 -87 -11 -105 -14 -122 -20 -18 -5 -61 -15 -88 -19
-85 -13 -320 -103 -328 -126 -2 -5 -9 -9 -16 -9 -15 0 -132 -94 -165 -133 -13
-16 -31 -35 -38 -42 -7 -8 -13 -18 -13 -23 0 -6 -3 -12 -8 -14 -4 -1 -21 -32
-38 -68 -38 -79 -64 -188 -64 -270 l0 -62 -27 34 c-202 242 -581 474 -993 606
-115 37 -307 85 -413 102 -42 7 -75 15 -73 18 3 2 40 6 83 8 241 10 518 33
608 50 11 2 40 7 65 10 64 9 269 62 304 79 16 8 35 15 43 15 7 0 13 5 13 10 0
6 9 10 20 10 11 0 20 5 20 10 0 6 6 10 13 10 21 0 101 70 138 120 99 134 63
252 -106 349 -34 20 -232 91 -253 91 -4 0 9 -15 29 -33 49 -43 68 -77 64 -110
-4 -33 -31 -56 -131 -114 -88 -50 -130 -65 -219 -78 -16 -3 -41 -7 -55 -10
-14 -3 -43 -7 -65 -10 -22 -3 -57 -8 -77 -11 -20 -3 -60 -7 -90 -10 -29 -2
-71 -6 -93 -9 -22 -2 -71 -7 -110 -9 l-70 -5 40 32 c138 109 226 253 270 444
12 53 13 250 1 304 -24 108 -91 265 -129 304 -7 6 -21 24 -32 39 -35 49 -235
193 -235 170 0 -3 -7 -1 -15 6 -9 7 -57 23 -108 35 -116 28 -228 29 -322 3z
m380 -1698 c3 -5 1 -10 -4 -10 -6 0 -11 5 -11 10 0 6 2 10 4 10 3 0 8 -4 11
-10z m110 -702 c39 -5 155 -21 165 -23 3 -1 25 -7 50 -15 l45 -13 -80 -16
c-210 -45 -332 -116 -389 -229 -59 -116 -51 -254 21 -392 69 -131 92 -143 285
-146 140 -2 191 6 130 21 -15 3 -55 22 -88 40 -45 25 -66 44 -79 71 -41 87
-20 174 59 240 86 72 164 86 247 46 69 -33 99 -95 96 -193 -4 -101 -30 -151
-136 -258 -89 -89 -96 -95 -196 -172 -87 -67 -176 -128 -303 -208 -159 -100
-168 -104 -195 -90 -12 7 -24 15 -27 19 -3 3 -23 19 -45 35 -22 17 -42 32 -45
35 -3 3 -27 23 -55 44 -27 22 -58 47 -67 55 -9 9 -34 30 -54 46 -21 17 -70 57
-109 91 -38 33 -81 69 -94 80 -66 54 -215 202 -228 228 -15 30 -26 152 -14
171 3 6 6 13 6 16 0 23 66 104 98 121 74 37 198 6 250 -64 53 -71 63 -176 25
-246 -21 -37 -81 -94 -111 -105 -39 -14 67 -31 185 -30 73 1 129 21 161 57 57
65 101 221 94 334 -9 139 -89 244 -246 325 -50 26 -91 45 -91 42 0 -2 -11 0
-25 5 -14 5 -37 12 -51 14 -39 7 -39 13 -2 22 18 4 36 9 41 10 4 1 8 3 10 4 1
1 13 3 27 5 14 1 38 5 53 8 15 3 58 9 95 13 37 3 68 8 70 9 5 5 471 -2 517 -7z
m783 -263 c157 -92 356 -281 551 -520 9 -11 27 -37 41 -58 14 -20 28 -37 33
-37 4 0 7 -4 7 -9 0 -5 25 -45 55 -90 30 -45 51 -81 47 -81 -4 0 -2 -4 3 -8
13 -9 30 -39 86 -152 75 -152 139 -328 156 -434 3 -16 8 -39 12 -50 5 -12 8
-33 7 -48 -1 -16 1 -28 4 -28 3 0 6 -8 6 -17 1 -10 5 -61 9 -113 4 -52 8 -122
8 -155 0 -69 -12 -245 -17 -254 -2 -3 -6 -28 -10 -56 -8 -71 -39 -204 -74
-320 -39 -132 -96 -295 -102 -295 -3 0 -5 42 -5 92 0 111 -9 193 -29 270 -32
119 -127 249 -243 329 -48 33 -58 36 -48 12 33 -82 49 -179 48 -303 0 -83 -5
-119 -23 -170 -13 -36 -26 -67 -29 -70 -3 -3 -13 -18 -21 -35 -16 -33 -20 -37
-110 -143 -46 -54 -84 -85 -146 -122 -74 -44 -387 -200 -400 -200 -5 0 -36
-14 -199 -90 -22 -10 -94 -43 -161 -73 -66 -30 -129 -59 -140 -65 -10 -5 -48
-25 -84 -43 -68 -33 -128 -76 -169 -119 -34 -36 -101 -125 -101 -135 0 -5 -6
-16 -13 -24 -20 -23 -67 -138 -60 -145 4 -3 1 -6 -6 -6 -7 0 -10 -4 -6 -9 3
-5 1 -12 -4 -16 -6 -3 -15 11 -20 32 -51 184 -322 395 -697 543 -509 200 -720
335 -831 530 -35 61 -68 154 -77 215 -4 22 -10 63 -14 90 -9 57 -8 241 2 330
l6 60 -22 -27 c-13 -15 -32 -44 -43 -65 -10 -21 -24 -45 -30 -53 -28 -37 -94
-234 -114 -340 -21 -110 -27 -166 -31 -290 -1 -29 -54 90 -124 278 -9 23 -20
59 -25 80 -33 132 -41 165 -46 194 -3 18 -8 40 -10 48 -2 8 -6 38 -9 65 -3 28
-8 73 -11 100 -7 53 -7 305 -1 365 2 29 13 119 21 180 9 71 49 235 77 315 64
187 183 394 337 590 52 66 297 317 351 360 14 11 46 36 70 56 129 102 228 159
178 102 -19 -23 -48 -110 -54 -166 -6 -55 -5 -211 2 -262 10 -74 51 -144 127
-220 39 -39 82 -77 95 -84 13 -7 31 -19 40 -27 64 -57 317 -189 522 -274 160
-65 168 -69 145 -71 -76 -4 -171 -15 -290 -34 -168 -26 -482 -128 -544 -176
-13 -11 -28 -19 -33 -19 -16 0 -97 -60 -142 -105 -46 -46 -71 -109 -62 -160 2
-17 5 -31 6 -32 2 -2 3 -7 4 -12 4 -33 116 -127 221 -186 28 -15 52 -29 53
-31 2 -1 -14 -27 -37 -56 -22 -29 -55 -85 -73 -123 -27 -57 -33 -82 -32 -135
0 -36 3 -76 6 -90 4 -14 11 -46 17 -71 10 -43 56 -151 83 -194 22 -34 130
-135 139 -129 5 3 9 1 9 -3 0 -10 48 -28 100 -38 l35 -7 -25 18 c-38 27 -130
127 -130 142 0 6 -3 12 -8 12 -10 0 -46 82 -65 145 -19 67 -16 170 8 220 22
47 136 162 165 166 3 0 12 2 20 4 8 2 35 9 60 16 25 6 59 13 75 14 17 2 48 6
70 9 95 13 312 26 493 30 l122 3 -22 -26 c-13 -14 -28 -31 -34 -36 -43 -39
-223 -368 -215 -393 1 -1 -5 -15 -13 -31 -8 -15 -17 -39 -20 -52 -2 -13 -9
-37 -15 -52 -6 -15 -13 -40 -16 -55 -9 -51 -14 -74 -20 -93 -11 -34 -8 -154 5
-210 7 -30 26 -80 43 -113 32 -60 148 -186 173 -186 8 0 14 -4 14 -9 0 -5 9
-11 19 -14 16 -4 18 -1 14 17 -26 106 -36 292 -19 361 20 83 94 234 137 281
10 11 19 23 19 27 0 4 8 15 18 26 9 10 40 42 68 72 46 48 104 115 153 174 60
74 110 160 117 203 14 86 53 111 167 106 92 -3 176 -44 259 -126 99 -100 133
-205 99 -315 -1 -2 -2 -6 -2 -10 -1 -5 -15 -33 -31 -63 -39 -70 -105 -156
-171 -220 l-52 -51 48 20 c89 38 177 113 253 216 99 134 138 322 92 443 -22
56 -85 134 -129 161 l-27 17 66 34 c147 75 183 102 203 150 24 57 29 153 9
189 -22 42 -104 131 -120 131 -5 0 -10 5 -10 10 0 6 -6 10 -14 10 -8 0 -16 3
-18 8 -4 9 -94 53 -168 82 -73 29 -132 47 -210 65 -36 9 -74 17 -85 20 -37 9
-70 15 -109 21 -21 3 -48 8 -60 10 -26 5 -66 11 -131 19 -46 6 -74 15 -45 15
62 0 419 200 595 333 39 30 176 168 195 196 8 13 20 29 25 35 16 18 74 141 80
173 30 135 -3 265 -96 383 -37 47 -37 48 -11 36 15 -6 42 -21 60 -31z m-1248
-1325 l55 -1 -182 -90 c-101 -49 -185 -90 -188 -90 -2 0 -36 -15 -75 -34 -38
-19 -72 -35 -74 -35 -3 0 -29 -11 -58 -24 -222 -102 -364 -130 -438 -89 -41
23 -54 59 -45 119 8 54 43 93 110 124 64 29 206 65 295 74 14 2 34 6 45 9 11
3 44 9 74 12 30 4 63 9 75 11 12 3 68 7 126 10 58 4 106 7 107 8 1 1 28 0 60
-1 32 -1 83 -2 113 -3z m590 -73 c14 -3 45 -8 70 -11 25 -3 74 -13 110 -21 36
-9 74 -17 85 -19 31 -6 151 -54 203 -80 78 -40 109 -85 117 -171 3 -25 -21
-54 -56 -70 -110 -50 -337 23 -844 271 -44 21 -82 41 -85 44 -3 3 -23 15 -45
27 -22 12 -41 26 -43 31 -3 10 434 8 488 -1z"/>
</g>
</svg>
